REM MD5 201e29eee0b0529700bcbc55ef2fdb7f
FILE "Sabrina the Teenage Witch - A Twitch in Time! (Europe).bin" BINARY
  TRACK 01 MODE2/2352
    INDEX 01 00:00:00
  TRACK 02 AUDIO
    INDEX 00 09:06:18
    INDEX 01 09:08:18
  TRACK 03 AUDIO
    INDEX 00 10:57:19
    INDEX 01 10:59:19
  TRACK 04 AUDIO
    INDEX 00 12:47:23
    INDEX 01 12:49:23
  TRACK 05 AUDIO
    INDEX 00 14:41:22
    INDEX 01 14:43:22
  TRACK 06 AUDIO
    INDEX 00 17:11:44
    INDEX 01 17:13:44
  TRACK 07 AUDIO
    INDEX 00 19:14:14
    INDEX 01 19:16:14
  TRACK 08 AUDIO
    INDEX 00 21:44:36
    INDEX 01 21:46:36
  TRACK 09 AUDIO
    INDEX 00 23:47:06
    INDEX 01 23:49:06
  TRACK 10 AUDIO
    INDEX 00 26:13:52
    INDEX 01 26:15:52
  TRACK 11 AUDIO
    INDEX 00 28:25:16
    INDEX 01 28:27:16
  TRACK 12 AUDIO
    INDEX 00 30:51:62
    INDEX 01 30:53:62
  TRACK 13 AUDIO
    INDEX 00 33:03:26
    INDEX 01 33:05:26
  TRACK 14 AUDIO
    INDEX 00 35:33:48
    INDEX 01 35:35:48
  TRACK 15 AUDIO
    INDEX 00 37:38:11
    INDEX 01 37:40:11
  TRACK 16 AUDIO
    INDEX 00 40:08:33
    INDEX 01 40:10:33
  TRACK 17 AUDIO
    INDEX 00 42:12:71
    INDEX 01 42:14:71
  TRACK 18 AUDIO
    INDEX 00 44:23:41
    INDEX 01 44:25:41
  TRACK 19 AUDIO
    INDEX 00 46:58:40
    INDEX 01 47:00:40
  TRACK 20 AUDIO
    INDEX 00 49:09:10
    INDEX 01 49:11:10
  TRACK 21 AUDIO
    INDEX 00 51:44:09
    INDEX 01 51:46:09
  TRACK 22 AUDIO
    INDEX 00 51:55:67
    INDEX 01 51:57:67
  TRACK 23 AUDIO
    INDEX 00 52:08:57
    INDEX 01 52:10:57
  TRACK 24 AUDIO
    INDEX 00 52:21:23
    INDEX 01 52:23:23
  TRACK 25 AUDIO
    INDEX 00 52:35:32
    INDEX 01 52:37:32
  TRACK 26 AUDIO
    INDEX 00 52:47:25
    INDEX 01 52:49:25
  TRACK 27 AUDIO
    INDEX 00 52:55:35
    INDEX 01 52:57:35
  TRACK 28 AUDIO
    INDEX 00 53:07:52
    INDEX 01 53:09:52
  TRACK 29 AUDIO
    INDEX 00 53:19:43
    INDEX 01 53:21:43
  TRACK 30 AUDIO
    INDEX 00 53:32:02
    INDEX 01 53:34:02
  TRACK 31 AUDIO
    INDEX 00 53:42:16
    INDEX 01 53:44:16
  TRACK 32 AUDIO
    INDEX 00 53:51:33
    INDEX 01 53:53:33
  TRACK 33 AUDIO
    INDEX 00 54:04:65
    INDEX 01 54:06:65
  TRACK 34 AUDIO
    INDEX 00 54:16:10
    INDEX 01 54:18:10
  TRACK 35 AUDIO
    INDEX 00 54:29:73
    INDEX 01 54:31:73
  TRACK 36 AUDIO
    INDEX 00 54:40:33
    INDEX 01 54:42:33
  TRACK 37 AUDIO
    INDEX 00 54:50:15
    INDEX 01 54:52:15
  TRACK 38 AUDIO
    INDEX 00 55:02:37
    INDEX 01 55:04:37
  TRACK 39 AUDIO
    INDEX 00 55:13:63
    INDEX 01 55:15:63
  TRACK 40 AUDIO
    INDEX 00 55:23:64
    INDEX 01 55:25:64
  TRACK 41 AUDIO
    INDEX 00 55:35:11
    INDEX 01 55:37:11
  TRACK 42 AUDIO
    INDEX 00 55:45:50
    INDEX 01 55:47:50
  TRACK 43 AUDIO
    INDEX 00 55:59:47
    INDEX 01 56:01:47
  TRACK 44 AUDIO
    INDEX 00 56:11:19
    INDEX 01 56:13:19
  TRACK 45 AUDIO
    INDEX 00 56:19:27
    INDEX 01 56:21:27
  TRACK 46 AUDIO
    INDEX 00 56:29:46
    INDEX 01 56:31:46
  TRACK 47 AUDIO
    INDEX 00 56:45:58
    INDEX 01 56:47:58
  TRACK 48 AUDIO
    INDEX 00 56:54:45
    INDEX 01 56:56:45
  TRACK 49 AUDIO
    INDEX 00 57:02:52
    INDEX 01 57:04:52
  TRACK 50 AUDIO
    INDEX 00 57:13:71
    INDEX 01 57:15:71
  TRACK 51 AUDIO
    INDEX 00 57:23:68
    INDEX 01 57:25:68
  TRACK 52 AUDIO
    INDEX 00 57:32:06
    INDEX 01 57:34:06
  TRACK 53 AUDIO
    INDEX 00 57:40:04
    INDEX 01 57:42:04
  TRACK 54 AUDIO
    INDEX 00 57:48:25
    INDEX 01 57:50:25
  TRACK 55 AUDIO
    INDEX 00 57:57:26
    INDEX 01 57:59:26
  TRACK 56 AUDIO
    INDEX 00 58:07:32
    INDEX 01 58:09:32
  TRACK 57 AUDIO
    INDEX 00 58:16:31
    INDEX 01 58:18:31
  TRACK 58 AUDIO
    INDEX 00 58:25:56
    INDEX 01 58:27:56
  TRACK 59 AUDIO
    INDEX 00 58:35:10
    INDEX 01 58:37:10
  TRACK 60 AUDIO
    INDEX 00 58:45:22
    INDEX 01 58:47:22
  TRACK 61 AUDIO
    INDEX 00 58:55:08
    INDEX 01 58:57:08
  TRACK 62 AUDIO
    INDEX 00 59:03:21
    INDEX 01 59:05:21
  TRACK 63 AUDIO
    INDEX 00 59:12:08
    INDEX 01 59:14:08
  TRACK 64 AUDIO
    INDEX 00 59:23:01
    INDEX 01 59:25:01
  TRACK 65 AUDIO
    INDEX 00 59:33:00
    INDEX 01 59:35:00
  TRACK 66 AUDIO
    INDEX 00 59:42:05
    INDEX 01 59:44:05
  TRACK 67 AUDIO
    INDEX 00 59:50:70
    INDEX 01 59:52:70
  TRACK 68 AUDIO
    INDEX 00 60:02:37
    INDEX 01 60:04:37
  TRACK 69 AUDIO
    INDEX 00 60:14:37
    INDEX 01 60:16:37
  TRACK 70 AUDIO
    INDEX 00 60:27:29
    INDEX 01 60:29:29
  TRACK 71 AUDIO
    INDEX 00 60:43:59
    INDEX 01 60:45:59
  TRACK 72 AUDIO
    INDEX 00 60:54:39
    INDEX 01 60:56:39
  TRACK 73 AUDIO
    INDEX 00 61:09:08
    INDEX 01 61:11:08
  TRACK 74 AUDIO
    INDEX 00 61:17:19
    INDEX 01 61:19:19
  TRACK 75 AUDIO
    INDEX 00 61:25:59
    INDEX 01 61:27:59
  TRACK 76 AUDIO
    INDEX 00 61:39:23
    INDEX 01 61:41:23
  TRACK 77 AUDIO
    INDEX 00 61:47:32
    INDEX 01 61:49:32
  TRACK 78 AUDIO
    INDEX 00 61:55:34
    INDEX 01 61:57:34
  TRACK 79 AUDIO
    INDEX 00 62:04:55
    INDEX 01 62:06:55
  TRACK 80 AUDIO
    INDEX 00 62:16:65
    INDEX 01 62:18:65
  TRACK 81 AUDIO
    INDEX 00 62:24:71
    INDEX 01 62:26:71
  TRACK 82 AUDIO
    INDEX 00 62:34:17
    INDEX 01 62:36:17
  TRACK 83 AUDIO
    INDEX 00 62:44:35
    INDEX 01 62:46:35
  TRACK 84 AUDIO
    INDEX 00 63:03:38
    INDEX 01 63:05:38
  TRACK 85 AUDIO
    INDEX 00 63:26:73
    INDEX 01 63:28:73
  TRACK 86 AUDIO
    INDEX 00 63:52:59
    INDEX 01 63:54:59
  TRACK 87 AUDIO
    INDEX 00 64:17:03
    INDEX 01 64:19:03
  TRACK 88 AUDIO
    INDEX 00 64:25:09
    INDEX 01 64:27:09
  TRACK 89 AUDIO
    INDEX 00 64:34:40
    INDEX 01 64:36:40
  TRACK 90 AUDIO
    INDEX 00 64:42:69
    INDEX 01 64:44:69
  TRACK 91 AUDIO
    INDEX 00 65:04:11
    INDEX 01 65:06:11
  TRACK 92 AUDIO
    INDEX 00 65:18:16
    INDEX 01 65:20:16
  TRACK 93 AUDIO
    INDEX 00 65:29:49
    INDEX 01 65:31:49
  TRACK 94 AUDIO
    INDEX 00 65:40:07
    INDEX 01 65:42:07
  TRACK 95 AUDIO
    INDEX 00 65:52:64
    INDEX 01 65:54:64
  TRACK 96 AUDIO
    INDEX 00 66:07:01
    INDEX 01 66:09:01
  TRACK 97 AUDIO
    INDEX 00 66:21:08
    INDEX 01 66:23:08
REM LEADOUT 69:24:40
